<?xml version="1.0" encoding="iso-8859-1"?>
<!-- Uploaded to: SVG Repo, www.svgrepo.com, Generator: SVG Repo Mixer Tools -->
<!DOCTYPE svg PUBLIC "-//W3C//DTD SVG 1.1//EN" "http://www.w3.org/Graphics/SVG/1.1/DTD/svg11.dtd">
<svg fill="#000000" version="1.1" id="Capa_1" xmlns="http://www.w3.org/2000/svg" xmlns:xlink="http://www.w3.org/1999/xlink" 
	 width="800px" height="800px" viewBox="0 0 389.446 389.447"
	 xml:space="preserve">
<g>
	<path d="M381.716,49.92c-0.612-1.224-1.836-2.448-3.061-3.06c-2.447-2.448-6.119-3.672-9.791-1.836
		c-82.62,37.944-184.212,23.256-269.892,4.284c-3.06-1.836-7.956-1.224-9.792,3.06c-3.06,9.18-5.508,19.584-7.956,29.988
		C42.056,67.056,7.172,95.82,1.052,136.212c-7.344,46.512,24.48,94.859,72.828,98.532c4.284,21.42,11.628,41.615,23.256,58.752
		c34.272,50.796,112.608,58.14,167.688,47.735c57.527-11.016,91.188-60.588,107.1-113.22c8.568-28.765,11.628-58.752,14.076-88.128
		C387.224,113.568,395.18,73.176,381.716,49.92z M72.656,130.092c-4.284,15.912-5.508,33.66-3.672,51.408c0,2.448,0,4.284,0,6.732
		c-10.404-10.404-17.136-22.644-18.36-37.944c-1.224-16.524,9.18-22.032,22.032-22.644C72.656,128.868,72.656,129.48,72.656,130.092
		z M347.443,189.456c-4.896,39.78-20.808,85.068-55.079,107.1c33.659-58.14,40.392-132.804,31.212-198.288
		c11.628-1.836,23.256-4.284,32.436-9.18C359.071,122.136,351.116,157.632,347.443,189.456z M365.191,177.828
		c1.225-11.628,2.448-23.868,3.673-35.496c0-0.612,0-1.224,0-1.224C368.252,153.348,367.027,165.588,365.191,177.828z"/>
</g>
</svg>