<svg xmlns="http://www.w3.org/2000/svg" xmlns:xlink="http://www.w3.org/1999/xlink" width="40px" height="40px" viewBox="0 0 600 600" preserveAspectRatio="xMidYMid meet">
    <path fill="#4086F7"
        d="M450,450 A100,100 -180 0 0 450,250 V155.719 A100,100 -135 0 0 279.289,85.008 L85.008,279.289 A100,100 -135 0 0 155.719,450 H250 A100,100 -180 0 0 450,450 "></path>
    <path fill="#FFF"
        d="M383.333,450 V155.719 A33.333,33.333 -135 0 0 326.429,132.148 L132.148,326.429 A33.333,33.333 -135 0 0 155.719,383.333 H450 A33.333,33.333 -180 0 0 450,316.666 H222.385 L316.666,222.385 V450 A33.333,33.333 -180 0 0 383.333,450 "></path>
</svg>
